<svg width="182" height="183" viewBox="0 0 182 183" fill="none" xmlns="http://www.w3.org/2000/svg">
<path d="M92.4068 0.509766C111.28 0.770509 125.097 8.41703 134.987 20.6924C141.351 28.5916 146.072 38.3859 149.498 49.3154C162.077 54.7892 180.288 74.5123 180.617 122.692C180.663 129.55 180.342 135.028 179.715 139.315C179.09 143.596 178.157 146.723 176.96 148.854C175.757 150.996 174.257 152.182 172.508 152.454C170.786 152.722 168.951 152.081 167.103 150.868C163.667 148.613 159.943 144.215 156.372 138.991C155.22 154.781 153.254 169.534 151.174 181.668L151.032 182.5H31.7818L31.6392 181.668C29.6729 170.194 27.8063 156.377 26.6353 141.556C26.2759 142.118 25.9164 142.674 25.5533 143.221C21.7405 148.963 17.7133 153.865 14.0191 156.29C12.1714 157.503 10.3359 158.144 8.61383 157.876C6.86495 157.604 5.36502 156.417 4.16266 154.276C2.9657 152.145 2.03241 149.017 1.4068 144.737C0.780196 140.45 0.457715 134.972 0.504456 128.114C0.834146 79.7618 19.1758 60.0709 31.7593 54.6797C35.2625 41.5885 40.4378 29.8635 47.8267 20.6924C57.7171 8.41696 71.5339 0.770399 90.4068 0.509766V0.5H92.4068V0.509766Z" fill="#2B2B2B"/>
<path d="M92.4068 0.509766H91.9068V1.00291L92.3999 1.00972L92.4068 0.509766ZM134.987 20.6924L135.376 20.3787L135.376 20.3787L134.987 20.6924ZM149.498 49.3154L149.021 49.465L149.089 49.6828L149.298 49.7739L149.498 49.3154ZM180.617 122.692L181.117 122.689V122.689L180.617 122.692ZM179.715 139.315L180.21 139.388H180.21L179.715 139.315ZM176.96 148.854L177.395 149.099L177.396 149.099L176.96 148.854ZM172.508 152.454L172.585 152.948L172.585 152.948L172.508 152.454ZM167.103 150.868L166.829 151.286L166.829 151.286L167.103 150.868ZM156.372 138.991L156.784 138.709L155.977 137.528L155.873 138.955L156.372 138.991ZM151.174 181.668L150.682 181.584V181.584L151.174 181.668ZM151.032 182.5V183H151.453L151.525 182.584L151.032 182.5ZM31.7818 182.5L31.289 182.584L31.3602 183H31.7818V182.5ZM31.6392 181.668L32.132 181.584V181.584L31.6392 181.668ZM26.6353 141.556L27.1338 141.516L27.0165 140.032L26.2141 141.286L26.6353 141.556ZM25.5533 143.221L25.9698 143.497V143.497L25.5533 143.221ZM14.0191 156.29L14.2935 156.708L14.2935 156.708L14.0191 156.29ZM8.61383 157.876L8.53696 158.37L8.53698 158.37L8.61383 157.876ZM4.16266 154.276L3.72669 154.521L3.7267 154.521L4.16266 154.276ZM1.4068 144.737L0.912056 144.81H0.912056L1.4068 144.737ZM0.504456 128.114L0.00446719 128.111V128.111L0.504456 128.114ZM31.7593 54.6797L31.9562 55.1393L32.1795 55.0436L32.2423 54.8089L31.7593 54.6797ZM47.8267 20.6924L47.4374 20.3787L47.4374 20.3787L47.8267 20.6924ZM90.4068 0.509766L90.4137 1.00972L90.9068 1.00291V0.509766H90.4068ZM90.4068 0.5V0H89.9068V0.5H90.4068ZM92.4068 0.5H92.9068V0H92.4068V0.5ZM92.4068 0.509766L92.3999 1.00972C111.12 1.26835 124.798 8.84365 134.598 21.0061L134.987 20.6924L135.376 20.3787C125.395 7.9904 111.439 0.272665 92.4137 0.00981334L92.4068 0.509766ZM134.987 20.6924L134.598 21.0061C140.912 28.8433 145.607 38.5766 149.021 49.465L149.498 49.3154L149.975 49.1659C146.536 38.1953 141.79 28.3398 135.376 20.3787L134.987 20.6924ZM149.498 49.3154L149.298 49.7739C161.631 55.1405 179.789 74.6314 180.117 122.696L180.617 122.692L181.117 122.689C180.787 74.3933 162.522 54.4379 149.697 48.857L149.498 49.3154ZM180.617 122.692L180.117 122.696C180.163 129.538 179.842 134.989 179.221 139.243L179.715 139.315L180.21 139.388C180.842 135.067 181.164 129.561 181.117 122.689L180.617 122.692ZM179.715 139.315L179.221 139.243C178.599 143.496 177.677 146.555 176.524 148.61L176.96 148.854L177.396 149.099C178.636 146.891 179.581 143.695 180.21 139.388L179.715 139.315ZM176.96 148.854L176.524 148.61C175.369 150.666 173.981 151.719 172.431 151.96L172.508 152.454L172.585 152.948C174.534 152.645 176.145 151.325 177.395 149.099L176.96 148.854ZM172.508 152.454L172.432 151.96C170.885 152.201 169.178 151.632 167.377 150.45L167.103 150.868L166.829 151.286C168.724 152.53 170.687 153.243 172.585 152.948L172.508 152.454ZM167.103 150.868L167.377 150.45C164.028 148.251 160.35 143.924 156.784 138.709L156.372 138.991L155.959 139.273C159.536 144.506 163.306 148.974 166.829 151.286L167.103 150.868ZM156.372 138.991L155.873 138.955C154.723 154.727 152.758 169.464 150.682 181.584L151.174 181.668L151.667 181.752C153.749 169.605 155.717 154.836 156.87 139.028L156.372 138.991ZM151.174 181.668L150.682 181.584L150.539 182.416L151.032 182.5L151.525 182.584L151.667 181.752L151.174 181.668ZM151.032 182.5V182H31.7818V182.5V183H151.032V182.5ZM31.7818 182.5L32.2746 182.416L32.132 181.584L31.6392 181.668L31.1464 181.752L31.289 182.584L31.7818 182.5ZM31.6392 181.668L32.132 181.584C30.168 170.122 28.3034 156.321 27.1338 141.516L26.6353 141.556L26.1369 141.595C27.3092 156.433 29.1778 170.265 31.1464 181.752L31.6392 181.668ZM26.6353 141.556L26.2141 141.286C25.8554 141.847 25.4976 142.401 25.1367 142.944L25.5533 143.221L25.9698 143.497C26.3352 142.947 26.6963 142.388 27.0565 141.825L26.6353 141.556ZM25.5533 143.221L25.1367 142.944C21.3282 148.68 17.3479 153.507 13.7447 155.872L14.0191 156.29L14.2935 156.708C18.0787 154.223 22.1527 149.246 25.9698 143.497L25.5533 143.221ZM14.0191 156.29L13.7447 155.872C11.9442 157.054 10.2369 157.622 8.69068 157.382L8.61383 157.876L8.53698 158.37C10.4348 158.665 12.3985 157.952 14.2935 156.708L14.0191 156.29ZM8.61383 157.876L8.6907 157.382C7.14131 157.141 5.75331 156.088 4.59862 154.032L4.16266 154.276L3.7267 154.521C4.97673 156.747 6.58858 158.067 8.53696 158.37L8.61383 157.876ZM4.16266 154.276L4.59863 154.032C3.44477 151.977 2.52323 148.918 1.90154 144.665L1.4068 144.737L0.912056 144.81C1.54158 149.116 2.48662 152.313 3.72669 154.521L4.16266 154.276ZM1.4068 144.737L1.90154 144.665C1.27982 140.411 0.957808 134.96 1.00444 128.118L0.504456 128.114L0.00446719 128.111C-0.0423773 134.983 0.280576 140.489 0.912056 144.81L1.4068 144.737ZM0.504456 128.114L1.00444 128.118C1.33334 79.8811 19.6212 60.4241 31.9562 55.1393L31.7593 54.6797L31.5624 54.2201C18.7305 59.7178 0.334947 79.6426 0.00446719 128.111L0.504456 128.114ZM31.7593 54.6797L32.2423 54.8089C35.7341 41.7603 40.8845 30.1059 48.2161 21.0061L47.8267 20.6924L47.4374 20.3787C39.991 29.621 34.7909 41.4167 31.2763 54.5504L31.7593 54.6797ZM47.8267 20.6924L48.2161 21.0061C58.0155 8.84359 71.6934 1.26824 90.4137 1.00972L90.4068 0.509766L90.3999 0.00981331C71.3743 0.272555 57.4188 7.99034 47.4374 20.3787L47.8267 20.6924ZM90.4068 0.509766H90.9068V0.5H90.4068H89.9068V0.509766H90.4068ZM90.4068 0.5V1H92.4068V0.5V0H90.4068V0.5ZM92.4068 0.5H91.9068V0.509766H92.4068H92.9068V0.5H92.4068Z" fill="black"/>
<path d="M91.9062 23.6355V23.6385C107.352 23.778 118.615 30.3883 126.661 41.0262C134.776 51.7552 139.61 66.5629 142.23 82.9158C147.473 115.625 143.895 154.722 139.77 180.359L139.702 180.78H43.1103L43.0419 180.359C38.9176 154.723 35.3398 115.625 40.582 82.9158C43.2028 66.5629 48.0361 51.7552 56.1513 41.0262C64.1976 30.3884 75.4609 23.7781 90.9062 23.6385V23.6355H91.9062Z" fill="white"/>
<path d="M76.6469 49.2108C76.6469 51.0074 75.0466 52.4639 73.0724 52.4639C71.0983 52.4639 69.4979 51.0074 69.4979 49.2108C69.4979 47.4143 71.0983 45.9578 73.0724 45.9578C75.0466 45.9578 76.6469 47.4143 76.6469 49.2108Z" fill="black"/>
<ellipse cx="110.349" cy="49.2108" rx="3.57451" ry="3.25301" fill="black"/>
<path d="M97.5833 56.8012H85.3279L91.4556 68.7289L97.5833 56.8012Z" fill="#E7A96B" stroke="black"/>
</svg>
